<svg viewBox="0 0 885 1000" xmlns="http://www.w3.org/2000/svg" fill-rule="evenodd" clip-rule="evenodd" stroke-linejoin="round" stroke-miterlimit="1.414">
    <path d="M442.329 347.147c-168.456 0-231.218-52.149-303.941-191.939H99.613L.001 394.044v282.149h884.656V394.044l-99.619-238.836h-38.769c-72.717 139.79-135.479 191.939-303.94 191.939" fill="#c9c5c4" fill-rule="nonzero"/>
    <path d="M598.25 155.918c0 86.122-155.918 311.854-155.918 311.854s-155.93-225.732-155.93-311.854C286.402 69.802 356.216 0 442.332 0 528.441 0 598.25 69.802 598.25 155.918" fill="#ff5722" fill-rule="nonzero"/>
    <path d="M403.346 223.435l-38.978-67.515 38.978-67.515h77.968l38.978 67.515-38.978 67.515h-77.968z" fill="#fff" fill-rule="nonzero"/>
    <path d="M785.038 155.209h-38.769l86.619 238.836c-72.71 139.783-222.092 235.239-390.56 235.239-168.456 0-317.837-95.456-390.56-235.239l86.619-238.836H99.612L0 394.045v282.764h884.656V394.045l-99.618-238.836zM40.652 838.54c-8.995 0-20.009-1.384-33.041-4.152l-6.227-1.211 2.422-18.51c15.453 2.076 27.274 3.114 35.462 3.114 12.225 0 18.337-5.074 18.337-15.223 0-4.151-1.615-7.208-4.844-9.168-3.229-1.961-8.649-4.036-16.261-6.228-9.11-2.537-16.289-5.362-21.537-8.476-5.247-3.114-9.053-6.804-11.417-11.071C1.182 763.348 0 758.043 0 751.7c0-11.532 3.517-20.24 10.552-26.121 7.035-5.882 16.895-8.822 29.581-8.822 4.959 0 10.091.317 15.396.951 5.305.634 13.089 1.874 23.353 3.719l-1.903 18.856c-15.799-1.845-27.274-2.768-34.424-2.768-12.571 0-18.856 4.152-18.856 12.455 0 2.883 1.038 5.247 3.114 7.093 2.076 1.845 4.671 3.373 7.784 4.584 3.114 1.211 8.361 2.969 15.742 5.276 7.958 2.537 14.128 5.189 18.51 7.957 4.382 2.768 7.554 6.199 9.514 10.293 1.961 4.094 2.941 9.37 2.941 15.828 0 12.109-3.662 21.393-10.985 27.851-7.323 6.458-17.212 9.688-29.667 9.688zM140.293 789.411l-15.915 1.557v45.496h-23.872V718.832h23.872v51.378l16.088-1.557 19.201-49.821h27.159l-25.602 58.816 26.294 58.816h-27.505l-19.72-47.053zM262.941 815.186H221.77l-4.671 21.278h-23.872l26.467-117.632h45.322l26.467 117.632h-23.872l-4.67-21.278zm-16.434-76.633h-8.304l-11.936 55.875h32.176l-11.936-55.875zM321.756 739.937h-31.483v-21.105h86.493v21.105h-31.138v96.527h-23.872v-96.527zM415.688 739.591v27.505h41.863v20.412h-41.863v28.197h52.242v20.759h-76.114V718.832h76.114v20.759h-52.242zM487.651 718.832h43.247c27.908 0 41.863 13.609 41.863 40.825 0 13.839-3.547 24.392-10.639 31.657-7.092 7.266-17.501 10.898-31.224 10.898h-19.375v34.252h-23.872V718.832zm43.074 62.968c11.878 0 17.818-7.381 17.818-22.143 0-7.15-1.413-12.339-4.239-15.568-2.825-3.23-7.352-4.844-13.579-4.844h-19.202V781.8h19.202zM646.107 815.186h-41.171l-4.67 21.278h-23.873l26.468-117.632h45.322l26.467 117.632h-23.872l-4.671-21.278zm-16.433-76.633h-8.304l-11.936 55.875h32.176l-11.936-55.875zM690.392 718.832h45.669c27.678 0 41.517 12.917 41.517 38.75 0 15.338-5.767 26.64-17.299 33.905l16.78 44.977h-26.121l-13.666-39.441h-23.008v39.441h-23.872V718.832zm46.015 57.778c5.42 0 9.572-1.701 12.455-5.103 2.883-3.402 4.324-7.986 4.324-13.752 0-5.767-1.499-10.293-4.497-13.58-2.999-3.287-7.208-4.93-12.628-4.93h-21.797v37.365h22.143zM837.431 789.411l-15.915 1.557v45.496h-23.872V718.832h23.872v51.378l16.088-1.557 19.202-49.821h27.159l-25.602 58.816 26.294 58.816h-27.505l-19.721-47.053z"
          fill="currentColor" fill-rule="nonzero"/>
    <path fill="currentColor" fill-rule="nonzero"
          d="M382.831 969.209h24.91v28.715h-24.91zM473.301 1000c-12.109 0-21.652-2.133-28.629-6.4s-11.964-10.841-14.963-19.72c-2.998-8.88-4.497-20.643-4.497-35.289 0-14.415 1.557-26.034 4.67-34.856 3.114-8.822 8.102-15.28 14.963-19.374 6.862-4.094 16.059-6.141 27.591-6.141 10.725 0 22.315 1.211 34.77 3.633l6.227 1.211-.692 18.509c-13.377-1.499-24.679-2.249-33.905-2.249-9.11 0-15.741 1.528-19.893 4.584-4.151 3.056-6.717 7.208-7.697 12.455-.981 5.247-1.471 13.06-1.471 23.439 0 10.264.692 18.163 2.076 23.699 1.384 5.535 3.892 9.543 7.525 12.022 3.632 2.479 9.024 3.719 16.174 3.719 6.804 0 11.59-.231 14.357-.692v-22.834h-10.725v-20.758h34.251v61.063c-16.837 2.653-30.214 3.979-40.132 3.979zM579.685 1000c-15.107 0-26.351-3.402-33.731-10.206-7.381-6.804-11.071-17.356-11.071-31.656v-77.842h23.871v78.361c0 13.723 6.977 20.585 20.931 20.585s20.931-6.862 20.931-20.585v-78.361h23.872v77.842c0 14.3-3.69 24.852-11.071 31.656-7.381 6.804-18.624 10.206-33.732 10.206zM649.051 880.296h23.872v117.628h-23.872zM738.138 880.296c13.377 0 23.641 1.874 30.791 5.622 7.15 3.748 12.137 9.658 14.963 17.731 2.825 8.072 4.238 19.258 4.238 33.558 0 14.877-1.384 26.64-4.152 35.289-2.768 8.649-7.755 15.049-14.963 19.201-7.208 4.151-17.5 6.227-30.877 6.227h-39.613V880.296h39.613zm0 96.87c7.496 0 13.06-1.499 16.692-4.497 3.633-2.999 5.997-7.294 7.093-12.887 1.095-5.594 1.643-13.58 1.643-23.959 0-9.225-.577-16.202-1.73-20.931-1.153-4.728-3.517-8.216-7.092-10.465-3.575-2.249-9.11-3.373-16.606-3.373h-15.742v76.112h15.742zM832.759 901.054v27.504h41.862v20.412h-41.862v28.196H885v20.758h-76.112V880.296H885v20.758h-52.241z"/>
</svg>