<svg viewBox="0 0 96 96" xmlns="http://www.w3.org/2000/svg" fill-rule="evenodd" clip-rule="evenodd" stroke-linejoin="round" stroke-miterlimit="1.414">
    <path d="M72.739 30.932c-.698 0-1.528.109-2.321.253C67.541 21.328 58.532 14.44 48 14.44c-10.533 0-19.543 6.888-22.419 16.745-.792-.144-1.623-.253-2.32-.253-8.336 0-15.118 6.783-15.118 15.119 0 8.335 6.782 15.118 15.118 15.118h15.48l-5.398 8.097a2.751 2.751 0 0 0-.137 2.821 2.753 2.753 0 0 0 2.424 1.452h3.111l-5.398 8.096a2.749 2.749 0 0 0 4.574 3.049l8.247-12.37a2.753 2.753 0 0 0 .137-2.822 2.752 2.752 0 0 0-2.424-1.451h-3.11l4.58-6.872h7.136l-2.648 3.973a2.753 2.753 0 0 0-.138 2.822 2.757 2.757 0 0 0 2.426 1.451h3.11l-2.648 3.974a2.749 2.749 0 0 0 4.574 3.048l5.498-8.246a2.753 2.753 0 0 0 .137-2.822 2.754 2.754 0 0 0-2.424-1.451h-3.111l1.832-2.749h13.648c8.336 0 15.118-6.783 15.118-15.118 0-8.336-6.782-15.119-15.118-15.119zm0 24.74H23.261c-5.304 0-9.621-4.317-9.621-9.621s4.317-9.621 9.621-9.621c.381 0 .994.093 1.64.223v2.526a2.75 2.75 0 0 0 5.497 0v-4.424C31.873 26.16 39.244 19.937 48 19.937c8.755 0 16.126 6.223 17.602 14.819v4.423a2.75 2.75 0 0 0 5.497 0v-2.525c.646-.129 1.264-.224 1.64-.224 5.304 0 9.621 4.317 9.621 9.621s-4.317 9.621-9.621 9.621z"
          fill-rule="nonzero"/>
</svg>
