<svg viewBox="0 0 96 96" xmlns="http://www.w3.org/2000/svg" fill-rule="evenodd" clip-rule="evenodd" stroke-linejoin="round" stroke-miterlimit="1.414">
    <g fill-rule="nonzero">
        <path d="M36.746 31.155h15.005a2.502 2.502 0 0 0 0-5.002H36.746a2.5 2.5 0 1 0 0 5.002zM21.74 38.658h30.011a2.502 2.502 0 0 0 0-5.002H21.74a2.5 2.5 0 0 0 0 5.002zM14.237 46.16h30.012c1.38 0 2.501-1.12 2.501-2.501 0-1.38-1.121-2.5-2.501-2.5H14.237a2.5 2.5 0 1 0 0 5.001zM88.014 51.162c0-1.38-1.12-2.501-2.5-2.501H10.486a2.501 2.501 0 0 0 0 5.002h75.028c1.38 0 2.5-1.12 2.5-2.501zM85.514 56.164H14.238a2.5 2.5 0 1 0 0 5.002h71.276a2.502 2.502 0 0 0 0-5.002zM36.746 63.667l-15.006-.002a2.501 2.501 0 0 0 0 5.002l15.006.001c1.38 0 2.501-1.12 2.501-2.5a2.502 2.502 0 0 0-2.501-2.501zM60.505 38.658h10.003a2.502 2.502 0 0 0 0-5.002H60.505a2.5 2.5 0 1 0 0 5.002zM49.25 43.659a2.501 2.501 0 0 0 2.501 2.501h26.26c1.38 0 2.501-1.12 2.501-2.501 0-1.38-1.121-2.5-2.501-2.5h-26.26a2.501 2.501 0 0 0-2.501 2.5zM78.011 63.665l-33.762.002a2.5 2.5 0 1 0 0 5.001l33.762-.001a2.502 2.502 0 0 0 0-5.002z"/>
    </g>
</svg>
