<svg viewBox="0 0 96 96" xmlns="http://www.w3.org/2000/svg" fill-rule="evenodd" clip-rule="evenodd" stroke-linejoin="round" stroke-miterlimit="1.414">
    <path d="M71.226 28.058c.841 0 1.682-.32 2.323-.962l4.646-4.646a3.286 3.286 0 0 0-4.645-4.645l-4.646 4.646a3.284 3.284 0 0 0 2.322 5.607zM18.438 48a3.287 3.287 0 0 0-3.285-3.285h-6.57a3.286 3.286 0 0 0 0 6.57h6.57A3.287 3.287 0 0 0 18.438 48zm4.013 20.904l-4.646 4.646a3.286 3.286 0 0 0 4.645 4.645l4.646-4.646a3.284 3.284 0 1 0-4.645-4.645zm0-41.808a3.271 3.271 0 0 0 2.323.962 3.284 3.284 0 0 0 2.322-5.607l-4.646-4.646a3.286 3.286 0 0 0-4.645 4.645l4.646 4.646zM48 18.438a3.287 3.287 0 0 0 3.285-3.285v-6.57a3.286 3.286 0 0 0-6.57 0v6.57A3.287 3.287 0 0 0 48 18.438zm39.417 26.277h-6.57A3.287 3.287 0 0 0 77.562 48a3.287 3.287 0 0 0 3.285 3.285h6.57a3.286 3.286 0 0 0 0-6.57zM73.549 68.904a3.284 3.284 0 1 0-4.645 4.645l4.646 4.646a3.271 3.271 0 0 0 2.323.962 3.286 3.286 0 0 0 2.322-5.607l-4.646-4.646zM48 77.562a3.287 3.287 0 0 0-3.285 3.285v6.57a3.286 3.286 0 0 0 6.57 0v-6.57A3.287 3.287 0 0 0 48 77.562zm0-52.555c-12.679 0-22.993 10.314-22.993 22.993 0 12.679 10.314 22.993 22.993 22.993 12.679 0 22.993-10.314 22.993-22.993 0-12.679-10.314-22.993-22.993-22.993zm0 39.417c-9.056 0-16.424-7.368-16.424-16.424S38.944 31.576 48 31.576 64.424 38.944 64.424 48 57.056 64.424 48 64.424z"
          fill-rule="nonzero"/>
</svg>
