<svg viewBox="0 0 96 96" xmlns="http://www.w3.org/2000/svg" fill-rule="evenodd" clip-rule="evenodd" stroke-linejoin="round" stroke-miterlimit="1.414">
    <path d="M71.221 44.13c-10.67 0-19.351-8.681-19.351-19.351a3.872 3.872 0 0 0-3.87-3.87c-14.939 0-27.091 12.152-27.091 27.091 0 14.939 12.152 27.091 27.091 27.091 14.939 0 27.091-12.152 27.091-27.091a3.872 3.872 0 0 0-3.87-3.87zM48 67.351c-10.67 0-19.351-8.681-19.351-19.351 0-9.459 6.821-17.356 15.806-19.026 1.807 11.584 10.985 20.762 22.571 22.571C65.356 60.53 57.461 67.351 48 67.351z" fill-rule="nonzero"/>
</svg>
