<svg viewBox="0 0 96 96" xmlns="http://www.w3.org/2000/svg" fill-rule="evenodd" clip-rule="evenodd" stroke-linejoin="round" stroke-miterlimit="1.414">
    <path d="M75.156 45.66c4-3.549 6.492-8.721 6.492-14.304a2.729 2.729 0 0 0-2.728-2.728c-7.52 0-13.638-6.118-13.638-13.638a2.729 2.729 0 0 0-2.728-2.728c-9.653 0-17.635 7.207-18.898 16.518-9.34 1.005-17.093 7.484-19.713 16.464-.787-.142-1.612-.25-2.304-.25-8.271 0-15.002 6.731-15.002 15.002 0 8.272 6.731 15.002 15.002 15.002h49.098c8.272 0 15.002-6.73 15.002-15.002 0-6.734-4.462-12.445-10.583-14.336zm-15.1-27.713c1.274 8.162 7.74 14.631 15.902 15.907-.839 4.427-3.873 8.192-7.995 9.992-2.937-8.112-10.156-13.919-18.81-15.013 1.036-5.509 5.39-9.861 10.903-10.886zm10.681 51.596H21.639c-5.263 0-9.546-4.284-9.546-9.547 0-5.263 4.283-9.546 9.546-9.546.378 0 .988.092 1.629.22v2.507a2.729 2.729 0 0 0 5.455 0V48.78c1.466-8.525 8.779-14.696 17.465-14.696 8.691 0 16.006 6.178 17.468 14.711v4.382a2.729 2.729 0 0 0 5.456 0v-2.505c.641-.128 1.252-.222 1.625-.222 5.263 0 9.547 4.283 9.547 9.546 0 5.263-4.284 9.547-9.547 9.547z" fill-rule="nonzero"/>
</svg>
