<svg viewBox="0 0 96 96" xmlns="http://www.w3.org/2000/svg" fill-rule="evenodd" clip-rule="evenodd" stroke-linejoin="round" stroke-miterlimit="1.414">
    <path d="M72.277 37.21c-.684 0-1.5.107-2.276.248C67.176 27.785 58.335 21.025 48 21.025c-10.337 0-19.176 6.76-22.001 16.433-.776-.141-1.592-.248-2.276-.248-8.18 0-14.836 6.656-14.836 14.836s6.656 14.836 14.836 14.836h48.554c8.18 0 14.836-6.656 14.836-14.836S80.457 37.21 72.277 37.21zm0 24.277H23.723c-5.206 0-9.441-4.236-9.441-9.441 0-5.205 4.235-9.441 9.441-9.441.373 0 .975.092 1.61.219v2.479a2.699 2.699 0 0 0 5.395 0v-4.351C32.179 32.522 39.411 26.42 48 26.42c8.593 0 15.827 6.109 17.275 14.545v4.338a2.698 2.698 0 0 0 5.394 0v-2.478c.634-.127 1.239-.22 1.608-.22 5.205 0 9.441 4.236 9.441 9.441 0 5.205-4.236 9.441-9.441 9.441z" fill-rule="nonzero"/>
</svg>
