<svg viewBox="0 0 96 96" xmlns="http://www.w3.org/2000/svg" fill-rule="evenodd" clip-rule="evenodd" stroke-linejoin="round" stroke-miterlimit="1.414">
    <path d="M48 80.081a2.728 2.728 0 0 0-2.728 2.727v5.456a2.728 2.728 0 0 0 5.456 0v-5.456A2.729 2.729 0 0 0 48 80.081zm-12.274-8.183a2.728 2.728 0 0 0-2.728 2.727v5.456a2.728 2.728 0 0 0 5.455 0v-5.456a2.728 2.728 0 0 0-2.727-2.727zm24.548 0a2.727 2.727 0 0 0-2.727 2.727v5.456a2.727 2.727 0 0 0 5.455 0v-5.456a2.729 2.729 0 0 0-2.728-2.727zm12.275-43.643c-.693 0-1.517.108-2.304.251C67.391 18.725 58.451 11.889 48 11.889c-10.452 0-19.392 6.836-22.247 16.617-.785-.143-1.61-.251-2.302-.251-8.272 0-15.002 6.731-15.002 15.002 0 8.272 6.73 15.002 15.002 15.002h9.547v5.456a2.728 2.728 0 0 0 5.455 0v-5.456h19.094v5.456a2.727 2.727 0 0 0 5.455 0v-5.456h9.547c8.272 0 15.002-6.73 15.002-15.002 0-8.271-6.73-15.002-15.002-15.002zm0 24.549H23.451c-5.263 0-9.547-4.284-9.547-9.547 0-5.263 4.284-9.547 9.547-9.547.378 0 .986.093 1.627.221v2.507a2.728 2.728 0 0 0 5.455 0v-4.39C31.997 23.52 39.311 17.344 48 17.344c8.688 0 16.002 6.176 17.467 14.705v4.389a2.729 2.729 0 0 0 5.455 0v-2.505c.641-.129 1.253-.223 1.627-.223 5.263 0 9.547 4.284 9.547 9.547 0 5.263-4.284 9.547-9.547 9.547zM48 63.715a2.728 2.728 0 0 0-2.728 2.727v5.456a2.728 2.728 0 0 0 5.456 0v-5.456A2.729 2.729 0 0 0 48 63.715z"
          fill-rule="nonzero"/>
</svg>
