<svg viewBox="0 0 96 96" xmlns="http://www.w3.org/2000/svg" fill-rule="evenodd" clip-rule="evenodd" stroke-linejoin="round" stroke-miterlimit="1.414">
    <path d="M43.471 84.635a2.442 2.442 0 0 0-2.442 2.442v4.885a2.442 2.442 0 0 0 4.884 0v-4.885a2.443 2.443 0 0 0-2.442-2.442zm-4.344-66.833a2.436 2.436 0 0 0 1.727.715 2.442 2.442 0 0 0 1.727-4.169l-3.454-3.453a2.44 2.44 0 1 0-3.453 3.453l3.453 3.454zm18.998-6.437a2.443 2.443 0 0 0 2.442-2.442V4.038a2.443 2.443 0 0 0-4.884 0v4.885a2.442 2.442 0 0 0 2.442 2.442zm17.271 7.152c.625 0 1.249-.238 1.727-.715l3.453-3.454a2.44 2.44 0 1 0-3.453-3.453l-3.454 3.453a2.442 2.442 0 0 0 1.727 4.169zM32.481 77.308a2.442 2.442 0 0 0-2.443 2.442v4.885a2.442 2.442 0 0 0 4.885 0V79.75a2.443 2.443 0 0 0-2.442-2.442zm54.952-46.404h-4.885a2.442 2.442 0 0 0 0 4.884h4.885a2.443 2.443 0 0 0 0-4.884zM43.471 69.981a2.442 2.442 0 0 0-2.442 2.442v4.885a2.442 2.442 0 0 0 4.884 0v-4.885a2.443 2.443 0 0 0-2.442-2.442zm29.987-29.08a17.035 17.035 0 0 0 1.763-7.555c0-9.427-7.669-17.096-17.096-17.096-5.619 0-10.862 2.785-14.039 7.352-.205-.006-.407-.025-.614-.025-9.359 0-17.364 6.12-19.919 14.878-.704-.128-1.443-.224-2.062-.224-7.407 0-13.433 6.026-13.433 13.432 0 7.407 6.026 13.433 13.433 13.433h8.547v4.885a2.442 2.442 0 0 0 4.885 0v-4.885h17.096v4.885a2.442 2.442 0 0 0 4.885 0v-4.885h8.549c7.407 0 13.433-6.026 13.433-13.433 0-4.405-2.142-8.311-5.428-10.762zM58.125 21.134c6.734 0 12.212 5.479 12.212 12.212 0 1.89-.44 3.725-1.265 5.394a13.36 13.36 0 0 0-3.619-.509c-.62 0-1.358.096-2.064.224A20.61 20.61 0 0 0 49.7 24.533c2.245-2.141 5.246-3.399 8.425-3.399zm7.328 39.078H21.491c-4.712 0-8.548-3.836-8.548-8.549 0-4.712 3.836-8.548 8.548-8.548.339 0 .883.083 1.456.198v2.245a2.443 2.443 0 0 0 4.885 0v-3.925c1.307-7.64 7.858-13.172 15.64-13.172 7.779 0 14.328 5.53 15.638 13.166v3.931a2.444 2.444 0 0 0 4.885 0v-2.244c.575-.114 1.124-.199 1.458-.199 4.713 0 8.548 3.836 8.548 8.548 0 4.713-3.835 8.549-8.548 8.549zM54.461 77.308a2.442 2.442 0 0 0-2.442 2.442v4.885a2.442 2.442 0 0 0 4.885 0V79.75a2.443 2.443 0 0 0-2.443-2.442z"
          fill-rule="nonzero"/>
</svg>
