<svg viewBox="0 0 96 96" xmlns="http://www.w3.org/2000/svg" fill-rule="evenodd" clip-rule="evenodd" stroke-linejoin="round" stroke-miterlimit="1.414">
    <g fill-rule="nonzero">
        <path d="M75.476 34.319c3.93-3.485 6.377-8.565 6.377-14.05a2.68 2.68 0 0 0-2.679-2.679c-7.387 0-13.397-6.01-13.397-13.397a2.68 2.68 0 0 0-2.679-2.679c-9.482 0-17.322 7.078-18.564 16.224-9.174.989-16.79 7.354-19.365 16.174-.772-.14-1.582-.246-2.261-.246-8.126 0-14.737 6.611-14.737 14.736s6.611 14.737 14.737 14.737h9.377v5.358a2.68 2.68 0 0 0 5.359 0v-5.358h18.755v5.358a2.68 2.68 0 0 0 5.359 0v-5.358h9.378c8.125 0 14.736-6.612 14.736-14.737 0-6.615-4.382-12.224-10.396-14.083zM60.642 7.097c1.253 8.018 7.604 14.372 15.622 15.626-.824 4.349-3.805 8.046-7.853 9.815a22.622 22.622 0 0 0-18.477-14.747c1.017-5.411 5.293-9.686 10.708-10.694zM71.136 57.78H22.908c-5.172 0-9.378-4.208-9.378-9.378s4.206-9.378 9.378-9.378c.371 0 .968.092 1.598.217v2.463a2.68 2.68 0 0 0 5.359 0v-4.315c1.44-8.376 8.623-14.441 17.157-14.441 8.532 0 15.717 6.065 17.157 14.441v4.315a2.68 2.68 0 0 0 5.359 0v-2.461c.629-.126 1.231-.219 1.598-.219 5.17 0 9.378 4.208 9.378 9.378s-4.208 9.378-9.378 9.378z"/>
        <path d="M47.022 68.497a2.681 2.681 0 0 0-2.68 2.68v5.358a2.68 2.68 0 0 0 5.359 0v-5.358a2.68 2.68 0 0 0-2.679-2.68zM47.022 84.573a2.681 2.681 0 0 0-2.68 2.68v5.358a2.68 2.68 0 0 0 5.359 0v-5.358a2.68 2.68 0 0 0-2.679-2.68zM34.965 76.535a2.681 2.681 0 0 0-2.68 2.68v5.358a2.68 2.68 0 0 0 5.359 0v-5.358a2.68 2.68 0 0 0-2.679-2.68zM59.079 76.535a2.681 2.681 0 0 0-2.68 2.68v5.358a2.68 2.68 0 0 0 5.359 0v-5.358a2.68 2.68 0 0 0-2.679-2.68z"/>
    </g>
</svg>
