<svg viewBox="0 0 96 96" xmlns="http://www.w3.org/2000/svg" fill-rule="evenodd" clip-rule="evenodd" stroke-linejoin="round" stroke-miterlimit="1.414">
    <g fill-rule="nonzero">
        <path d="M72.739 30.932c-.697 0-1.528.109-2.32.253C67.541 21.328 58.532 14.44 48 14.44s-19.541 6.888-22.418 16.745c-.793-.144-1.624-.253-2.321-.253-8.336 0-15.118 6.783-15.118 15.119 0 8.335 6.782 15.118 15.118 15.118a2.75 2.75 0 0 0 0-5.497c-5.305 0-9.621-4.317-9.621-9.621s4.316-9.621 9.621-9.621c.381 0 .994.093 1.64.223v2.526a2.75 2.75 0 0 0 5.497 0v-4.427C31.876 26.159 39.246 19.937 48 19.937s16.124 6.222 17.602 14.815v4.427a2.75 2.75 0 0 0 5.497 0v-2.526c.646-.13 1.259-.223 1.64-.223 5.304 0 9.621 4.317 9.621 9.621s-4.317 9.621-9.621 9.621a2.75 2.75 0 0 0 0 5.497c8.336 0 15.118-6.783 15.118-15.118 0-8.336-6.782-15.119-15.118-15.119z"/>
        <path d="M44.883 61.807a2.749 2.749 0 0 0-4.761 2.747l1.374 2.381a2.745 2.745 0 0 0 3.755 1.006 2.748 2.748 0 0 0 1.006-3.755l-1.374-2.379zM38.011 49.905a2.749 2.749 0 0 0-4.761 2.747l1.374 2.38a2.744 2.744 0 0 0 2.384 1.375 2.749 2.749 0 0 0 2.377-4.123l-1.374-2.379z"/>
        <path d="M41.128 56.041a2.747 2.747 0 0 0 3.755-1.007l1.374-2.381a2.748 2.748 0 1 0-4.761-2.748l-1.374 2.38a2.75 2.75 0 0 0 1.006 3.756zM38.379 60.799a2.75 2.75 0 0 0-3.755 1.008l-1.374 2.38a2.748 2.748 0 1 0 4.761 2.749l1.374-2.38a2.75 2.75 0 0 0-1.006-3.757z"/>
        <path d="M37.005 58.42a2.75 2.75 0 0 0-2.749-2.748h-2.749a2.75 2.75 0 0 0 0 5.497h2.749a2.75 2.75 0 0 0 2.749-2.749zM50.749 58.42A2.75 2.75 0 0 0 48 55.672h-2.749a2.75 2.75 0 0 0 0 5.497H48a2.75 2.75 0 0 0 2.749-2.749zM65.499 73.907a2.75 2.75 0 0 0-4.761 2.749l1.374 2.38a2.744 2.744 0 0 0 3.755 1.006 2.749 2.749 0 0 0 1.006-3.755l-1.374-2.38zM58.627 62.003a2.749 2.749 0 1 0-4.761 2.749l1.374 2.381a2.745 2.745 0 0 0 2.384 1.374 2.75 2.75 0 0 0 2.377-4.123l-1.374-2.381z"/>
        <path d="M61.744 68.14a2.747 2.747 0 0 0 3.755-1.007l1.374-2.381a2.749 2.749 0 1 0-4.761-2.749l-1.374 2.381a2.75 2.75 0 0 0 1.006 3.756zM58.995 72.9a2.75 2.75 0 0 0-3.755 1.006l-1.374 2.38a2.749 2.749 0 0 0 4.761 2.75l1.374-2.38a2.75 2.75 0 0 0-1.006-3.756z"/>
        <path d="M57.621 70.52a2.75 2.75 0 0 0-2.749-2.748h-2.749a2.75 2.75 0 0 0 0 5.497h2.749a2.75 2.75 0 0 0 2.749-2.749zM68.616 67.772h-2.749a2.75 2.75 0 0 0 0 5.497h2.749a2.75 2.75 0 0 0 0-5.497z"/>
    </g>
</svg>
